#!OML:ASF C:\ViconDB\ViconDB\414\Spring2016\041811\Spring2016.ASF
:FULLY-SPECIFIED
:DEGREES
451
root 14.9165 18.7567 -13.4973 737.691 -65.826 346.754
lowerback 1.0261 0.221091 -5.58536
upperback -0.872957 0.164428 -1.33623
thorax -1.4878 0.125942 1.75158
lowerneck -7.89766 -9.29192 -21.5225
upperneck 13.5532 -15.5483 29.142
head 9.91982 -6.99922 12.3667
rclavicle 5.25785e-014 -6.36111e-014
rhumerus -30.1896 -29.9644 6.05528
rradius 26.6738
rwrist 45.1381
rhand -27.0486 -13.2077
rfingers 7.12502
rthumb -0.46707 -43.1869
lclavicle 5.25785e-014 -6.36111e-014
lhumerus -28.8517 -3.82121 7.16269
lradius 21.2176
lwrist -17.8458
lhand -27.4581 20.7427
lfingers 7.12502
lthumb -0.862564 50.7207
rfemur -31.5818 -203.427 -7.9754
rtibia 28.4453
rfoot -9.53687 -57.3029
rtoes -20.8895
lfemur -14.1321 7.07095 -15.5194
ltibia 31.816
lfoot -28.9651 25.7254
ltoes -7.93099
452
root 14.9433 18.744 -13.581 738.52 -67.8713 346.078
lowerback 0.993659 0.124408 -5.8246
upperback -0.864594 0.0357148 -1.23882
thorax -1.45254 0.0637287 1.98836
lowerneck -8.26854 -9.2362 -21.5386
upperneck 13.7625 -15.3817 28.8646
head 9.97975 -6.90174 12.2788
rclavicle 2.79292e-014 -1.59028e-015
rhumerus -31.1329 -29.6578 7.13101
rradius 26.8039
rwrist 44.6543
rhand -26.9697 -13.4392
rfingers 7.12502
rthumb -0.390807 -43.4185
lclavicle 2.79292e-014 -1.59028e-015
lhumerus -28.6614 -2.72041 6.5588
lradius 21.1899
lwrist -18.6579
lhand -27.4924 20.1348
lfingers 7.12502
lthumb -0.895676 50.1126
rfemur -31.2787 -204.406 -7.82494
rtibia 28.2716
rfoot -11.3808 -57.382
rtoes -19.1436
lfemur -14.2664 7.85434 -15.6447
ltibia 32.007
lfoot -29.5022 26.5437
ltoes -7.83215
453
root 14.9813 18.7168 -13.6756 739.318 -69.8387 345.448
lowerback 1.02419 -0.0096026 -6.06276
upperback -0.867801 -0.149042 -1.18592
thorax -1.4586 -0.0257032 2.17991
lowerneck -8.51272 -9.1511 -21.5015
upperneck 13.9802 -15.2136 28.6112
head 10.0148 -6.81169 12.1967
rclavicle 2.8128e-014 9.54166e-015
rhumerus -32.1104 -29.7129 8.17991
rradius 26.7848
rwrist 44.433
rhand -26.866 -13.1302
rfingers 7.12502
rthumb -0.290677 -43.1097
lclavicle 2.8128e-014 9.54166e-015
lhumerus -28.4456 -1.56775 5.93185
lradius 21.2147
lwrist -19.6164
lhand -27.3596 20.4892
lfingers 7.12502
lthumb -0.767355 50.4675
rfemur -30.9139 -205.638 -7.71352
rtibia 28.0798
rfoot -13.5417 -57.7752
rtoes -17.5346
lfemur -14.5871 8.86024 -15.7855
ltibia 32.3709
lfoot -29.8801 27.12
ltoes -7.61716
454
root 15.0176 18.7099 -13.7677 741.015 -71.8219 343.814
lowerback 1.05632 -0.142798 -5.94225
upperback -0.789942 -0.322965 -1.17275
thorax -1.38221 -0.117067 2.13006
lowerneck -8.72881 -9.04813 -21.4204
upperneck 13.9746 -15.048 28.6163
head 9.99858 -6.71921 12.2073
rclavicle 3.47873e-014 3.18055e-015
rhumerus -33.1166 -29.6048 8.79268
rradius 26.8612
rwrist 44.2523
rhand -26.6013 -13.3868
rfingers 7.12502
rthumb -0.0349776 -43.3665
lclavicle 3.47873e-014 3.18055e-015
lhumerus -28.2313 -1.16384 5.57266
lradius 21.4085
lwrist -19.3984
lhand -27.4327 21.0049
lfingers 7.12502
lthumb -0.837992 50.983
rfemur -30.3221 -206.476 -7.1451
rtibia 27.7841
rfoot -15.7278 -57.9619
rtoes -16.3766
lfemur -14.8411 9.85827 -15.6159
ltibia 32.7684
lfoot -30.3691 27.8395
ltoes -7.57237
455
root 15.0568 18.7015 -13.8628 742.63 -73.8565 342.412
lowerback 0.958868 -0.278247 -6.00098
upperback -0.738256 -0.496965 -1.23987
thorax -1.26035 -0.208583 2.09659
lowerneck -9.05232 -8.95584 -21.1294
upperneck 14.0876 -14.8952 28.4324
head 10.0066 -6.6174 12.092
rclavicle -1.41137e-014 -2.54444e-014
rhumerus -34.0266 -29.2569 9.01499
rradius 26.9172
rwrist 43.254
rhand -26.1752 -14.4444
rfingers 7.12502
rthumb 0.376563 -44.4238
lclavicle -1.41137e-014 -2.54444e-014
lhumerus -27.9633 -0.33102 4.97835
lradius 21.4886
lwrist -20.5417
lhand -27.2419 20.8436
lfingers 7.12502
lthumb -0.65368 50.8224
rfemur -29.5663 -207.584 -6.74277
rtibia 27.5074
rfoot -18.3521 -58.3481
rtoes -14.695
lfemur -15.234 10.7429 -15.7006
ltibia 33.1768
lfoot -30.8986 28.6376
ltoes -7.51167
456
root 15.1009 18.6958 -13.9622 745.679 -75.7601 339.5
lowerback 1.00834 -0.387569 -5.9567
upperback -0.700103 -0.639552 -1.05927
thorax -1.23555 -0.279747 2.26068
lowerneck -9.15925 -8.90382 -21.2236
upperneck 14.0605 -14.7699 28.3736
head 9.98128 -6.56251 12.1019
rclavicle 4.47266e-015 3.18055e-015
rhumerus -34.99 -28.8005 9.41837
rradius 27.0317
rwrist 42.7531
rhand -26.0012 -14.4071
rfingers 7.12502
rthumb 0.544611 -44.3861
lclavicle 4.47266e-015 3.18055e-015
lhumerus -27.6532 0.344225 4.83192
lradius 21.6145
lwrist -20.5116
lhand -27.0589 20.6591
lfingers 7.12502
lthumb -0.477001 50.6383
rfemur -28.6461 -208.569 -5.88455
rtibia 27.1211
rfoot -21.1671 -58.7186
rtoes -13.287
lfemur -15.6086 11.4497 -15.433
ltibia 33.5899
lfoot -31.4489 29.5924
ltoes -7.46617
457
root 15.1391 18.6843 -14.0636 749.128 -77.833 336.161
lowerback 0.919918 -0.5405 -5.83665
upperback -0.536814 -0.83104 -1.20165
thorax -1.00522 -0.386823 2.04856
lowerneck -9.63106 -8.80246 -21.0471
upperneck 14.1548 -14.6636 28.5688
head 10.086 -6.46938 12.1728
rclavicle -1.09332e-015 -6.04305e-014
rhumerus -36.1235 -29.519 9.62287
rradius 26.8924
rwrist 43.8424
rhand -25.8939 -14.0909
rfingers 7.12502
rthumb 0.648215 -44.0697
lclavicle -1.09332e-015 -6.04305e-014
lhumerus -27.3171 0.659146 4.44002
lradius 21.6733
lwrist -20.7401
lhand -27.3026 20.7417
lfingers 7.12502
lthumb -0.712312 50.7203
rfemur -27.6971 -209.333 -5.18786
rtibia 26.7806
rfoot -23.6909 -58.9574
rtoes -12.233
lfemur -15.901 12.2096 -15.3709
ltibia 34.0381
lfoot -31.9659 30.6984
ltoes -7.54003
